<svg xmlns="http://www.w3.org/2000/svg" viewBox="0 0 64 46" role="img"><title>Lightning service controller with online wallet display</title><path d="m9 17 32-9 15 8v23l-32 6-15-8z" fill="#36514a" stroke="#8fd1a3"/><path d="m9 17 15 9 32-10M24 26v19" fill="none" stroke="#93a5a0"/><path d="m29 28 21-4v12l-21 4z" fill="#101b1c" stroke="#dca54a"/><rect x="31" y="29" width="0.7" height="0.6" fill="#8fd1a3"/><rect x="33.3" y="28.65" width="0.7" height="0.6" fill="#dca54a"/><rect x="35.6" y="28.3" width="0.7" height="0.6" fill="#8fd1a3"/><rect x="37.9" y="27.95" width="0.7" height="0.6" fill="#dca54a"/><rect x="40.2" y="27.6" width="0.7" height="0.6" fill="#8fd1a3"/><rect x="42.5" y="27.25" width="0.7" height="0.6" fill="#dca54a"/><rect x="44.8" y="26.9" width="0.7" height="0.6" fill="#8fd1a3"/><rect x="31" y="31" width="0.7" height="0.6" fill="#dca54a"/><rect x="33.3" y="30.65" width="0.7" height="0.6" fill="#8fd1a3"/><rect x="35.6" y="30.3" width="0.7" height="0.6" fill="#dca54a"/><rect x="37.9" y="29.95" width="0.7" height="0.6" fill="#8fd1a3"/><rect x="40.2" y="29.6" width="0.7" height="0.6" fill="#dca54a"/><rect x="42.5" y="29.25" width="0.7" height="0.6" fill="#8fd1a3"/><rect x="44.8" y="28.9" width="0.7" height="0.6" fill="#dca54a"/><rect x="31" y="33" width="0.7" height="0.6" fill="#8fd1a3"/><rect x="33.3" y="32.65" width="0.7" height="0.6" fill="#dca54a"/><rect x="35.6" y="32.3" width="0.7" height="0.6" fill="#8fd1a3"/><rect x="37.9" y="31.95" width="0.7" height="0.6" fill="#dca54a"/><rect x="40.2" y="31.6" width="0.7" height="0.6" fill="#8fd1a3"/><rect x="42.5" y="31.25" width="0.7" height="0.6" fill="#dca54a"/><rect x="44.8" y="30.9" width="0.7" height="0.6" fill="#8fd1a3"/><rect x="31" y="35" width="0.7" height="0.6" fill="#dca54a"/><rect x="33.3" y="34.65" width="0.7" height="0.6" fill="#8fd1a3"/><rect x="35.6" y="34.3" width="0.7" height="0.6" fill="#dca54a"/><rect x="37.9" y="33.95" width="0.7" height="0.6" fill="#8fd1a3"/><rect x="40.2" y="33.6" width="0.7" height="0.6" fill="#dca54a"/><rect x="42.5" y="33.25" width="0.7" height="0.6" fill="#8fd1a3"/><rect x="44.8" y="32.9" width="0.7" height="0.6" fill="#dca54a"/><line x1="11" y1="20" x2="19" y2="24" stroke="#182b29" stroke-width="0.35"/><line x1="11" y1="20.55" x2="19" y2="24.55" stroke="#182b29" stroke-width="0.35"/><line x1="11" y1="21.1" x2="19" y2="25.1" stroke="#182b29" stroke-width="0.35"/><line x1="11" y1="21.65" x2="19" y2="25.65" stroke="#182b29" stroke-width="0.35"/><line x1="11" y1="22.2" x2="19" y2="26.2" stroke="#182b29" stroke-width="0.35"/><line x1="11" y1="22.75" x2="19" y2="26.75" stroke="#182b29" stroke-width="0.35"/><line x1="11" y1="23.3" x2="19" y2="27.3" stroke="#182b29" stroke-width="0.35"/><line x1="11" y1="23.85" x2="19" y2="27.85" stroke="#182b29" stroke-width="0.35"/><line x1="11" y1="24.4" x2="19" y2="28.4" stroke="#182b29" stroke-width="0.35"/><line x1="11" y1="24.95" x2="19" y2="28.95" stroke="#182b29" stroke-width="0.35"/><line x1="11" y1="25.5" x2="19" y2="29.5" stroke="#182b29" stroke-width="0.35"/><line x1="11" y1="26.05" x2="19" y2="30.05" stroke="#182b29" stroke-width="0.35"/><line x1="11" y1="26.6" x2="19" y2="30.6" stroke="#182b29" stroke-width="0.35"/><line x1="11" y1="27.15" x2="19" y2="31.15" stroke="#182b29" stroke-width="0.35"/><line x1="11" y1="27.700000000000003" x2="19" y2="31.700000000000003" stroke="#182b29" stroke-width="0.35"/><line x1="11" y1="28.25" x2="19" y2="32.25" stroke="#182b29" stroke-width="0.35"/><line x1="11" y1="28.8" x2="19" y2="32.8" stroke="#182b29" stroke-width="0.35"/><line x1="11" y1="29.35" x2="19" y2="33.35" stroke="#182b29" stroke-width="0.35"/><line x1="11" y1="29.9" x2="19" y2="33.9" stroke="#182b29" stroke-width="0.35"/><line x1="11" y1="30.450000000000003" x2="19" y2="34.45" stroke="#182b29" stroke-width="0.35"/><line x1="11" y1="31" x2="19" y2="35" stroke="#182b29" stroke-width="0.35"/><line x1="11" y1="31.55" x2="19" y2="35.55" stroke="#182b29" stroke-width="0.35"/><line x1="11" y1="32.1" x2="19" y2="36.1" stroke="#182b29" stroke-width="0.35"/><line x1="11" y1="32.65" x2="19" y2="36.65" stroke="#182b29" stroke-width="0.35"/><line x1="11" y1="33.2" x2="19" y2="37.2" stroke="#182b29" stroke-width="0.35"/><line x1="11" y1="33.75" x2="19" y2="37.75" stroke="#182b29" stroke-width="0.35"/><circle cx="13" cy="16" r="0.24" fill="#93a5a0"/><circle cx="14" cy="15.75" r="0.24" fill="#93a5a0"/><circle cx="15" cy="15.5" r="0.24" fill="#93a5a0"/><circle cx="16" cy="15.25" r="0.24" fill="#93a5a0"/><circle cx="17" cy="15" r="0.24" fill="#93a5a0"/><circle cx="18" cy="14.75" r="0.24" fill="#93a5a0"/><circle cx="19" cy="14.5" r="0.24" fill="#93a5a0"/><circle cx="20" cy="14.25" r="0.24" fill="#93a5a0"/><circle cx="21" cy="14" r="0.24" fill="#93a5a0"/><circle cx="22" cy="13.75" r="0.24" fill="#93a5a0"/><circle cx="23" cy="13.5" r="0.24" fill="#93a5a0"/><circle cx="24" cy="13.25" r="0.24" fill="#93a5a0"/><circle cx="25" cy="13" r="0.24" fill="#93a5a0"/><circle cx="26" cy="12.75" r="0.24" fill="#93a5a0"/><circle cx="27" cy="12.5" r="0.24" fill="#93a5a0"/><circle cx="28" cy="12.25" r="0.24" fill="#93a5a0"/><circle cx="29" cy="12" r="0.24" fill="#93a5a0"/><circle cx="30" cy="11.75" r="0.24" fill="#93a5a0"/><circle cx="31" cy="11.5" r="0.24" fill="#93a5a0"/><circle cx="32" cy="11.25" r="0.24" fill="#93a5a0"/><circle cx="33" cy="11" r="0.24" fill="#93a5a0"/><circle cx="34" cy="10.75" r="0.24" fill="#93a5a0"/><circle cx="35" cy="10.5" r="0.24" fill="#93a5a0"/><circle cx="36" cy="10.25" r="0.24" fill="#93a5a0"/><rect x="28" y="41" width="1" height="0.6" fill="#dca54a"/><rect x="30.4" y="40.55" width="1" height="0.6" fill="#dca54a"/><rect x="32.8" y="40.1" width="1" height="0.6" fill="#dca54a"/><rect x="35.2" y="39.65" width="1" height="0.6" fill="#dca54a"/><rect x="37.6" y="39.2" width="1" height="0.6" fill="#dca54a"/><rect x="40" y="38.75" width="1" height="0.6" fill="#dca54a"/><rect x="42.4" y="38.3" width="1" height="0.6" fill="#dca54a"/><rect x="44.8" y="37.85" width="1" height="0.6" fill="#dca54a"/></svg>
