<svg xmlns="http://www.w3.org/2000/svg" viewBox="0 0 64 46" role="img"><defs>
    <linearGradient id="qr-signer-metal" x2="0" y2="1"><stop stop-color="#637d79"/><stop offset="1" stop-color="#293c3d"/></linearGradient>
    <linearGradient id="qr-signer-screen" x2="0" y2="1"><stop stop-color="#203d36"/><stop offset="1" stop-color="#101b1c"/></linearGradient>
  </defs>
    <title>QR signer with camera and transaction display</title>
    <path d="m12 11 27-5 12 8v25l-27 5-12-8z" fill="url(#qr-signer-metal)" stroke="#93a5a0"/><path d="m12 11 12 8 27-5M24 19v25" fill="none" stroke="#647d78"/>
    <circle cx="37" cy="18" r="3" fill="#101b1c" stroke="#8fd1a3"/><path d="m29 24 17-3v13l-17 3z" fill="url(#qr-signer-screen)" stroke="#8fd1a3"/>
    <path d="m32 26 3-.5v3l-3 .5zm8-1.5 3-.5v3l-3 .5zm-8 6 3-.5v3l-3 .5zm6-1 2-.5v2l-2 .5z" fill="#8fd1a3"/><circle cx="37" cy="39" r="1.5" fill="#dca54a"/>
  <circle cx="39.8" cy="18" r="0.2" fill="#93a5a0"/><circle cx="39.57083195898645" cy="19.299676544637542" r="0.2" fill="#93a5a0"/><circle cx="38.910968883852114" cy="20.44259291680885" r="0.2" fill="#93a5a0"/><circle cx="37.9" cy="21.290896534380867" r="0.2" fill="#93a5a0"/><circle cx="36.65986307513433" cy="21.74226946144639" r="0.2" fill="#93a5a0"/><circle cx="35.34013692486567" cy="21.74226946144639" r="0.2" fill="#93a5a0"/><circle cx="34.1" cy="21.290896534380867" r="0.2" fill="#93a5a0"/><circle cx="33.089031116147886" cy="20.44259291680885" r="0.2" fill="#93a5a0"/><circle cx="32.42916804101355" cy="19.299676544637542" r="0.2" fill="#93a5a0"/><circle cx="32.2" cy="18" r="0.2" fill="#93a5a0"/><circle cx="32.42916804101355" cy="16.700323455362458" r="0.2" fill="#93a5a0"/><circle cx="33.08903111614788" cy="15.557407083191151" r="0.2" fill="#93a5a0"/><circle cx="34.1" cy="14.709103465619133" r="0.2" fill="#93a5a0"/><circle cx="35.34013692486567" cy="14.25773053855361" r="0.2" fill="#93a5a0"/><circle cx="36.65986307513433" cy="14.25773053855361" r="0.2" fill="#93a5a0"/><circle cx="37.9" cy="14.709103465619132" r="0.2" fill="#93a5a0"/><circle cx="38.910968883852114" cy="15.55740708319115" r="0.2" fill="#93a5a0"/><circle cx="39.57083195898645" cy="16.700323455362458" r="0.2" fill="#93a5a0"/><rect x="30" y="26" width="0.75" height="0.75" fill="#637d79"/><rect x="32" y="25.65" width="0.75" height="0.75" fill="#8fd1a3"/><rect x="34" y="25.3" width="0.75" height="0.75" fill="#8fd1a3"/><rect x="36" y="24.95" width="0.75" height="0.75" fill="#637d79"/><rect x="38" y="24.6" width="0.75" height="0.75" fill="#8fd1a3"/><rect x="40" y="24.25" width="0.75" height="0.75" fill="#8fd1a3"/><rect x="30" y="28" width="0.75" height="0.75" fill="#637d79"/><rect x="32" y="27.65" width="0.75" height="0.75" fill="#8fd1a3"/><rect x="34" y="27.3" width="0.75" height="0.75" fill="#8fd1a3"/><rect x="36" y="26.95" width="0.75" height="0.75" fill="#637d79"/><rect x="38" y="26.6" width="0.75" height="0.75" fill="#8fd1a3"/><rect x="40" y="26.25" width="0.75" height="0.75" fill="#8fd1a3"/><rect x="30" y="30" width="0.75" height="0.75" fill="#637d79"/><rect x="32" y="29.65" width="0.75" height="0.75" fill="#8fd1a3"/><rect x="34" y="29.3" width="0.75" height="0.75" fill="#8fd1a3"/><rect x="36" y="28.95" width="0.75" height="0.75" fill="#637d79"/><rect x="38" y="28.6" width="0.75" height="0.75" fill="#8fd1a3"/><rect x="40" y="28.25" width="0.75" height="0.75" fill="#8fd1a3"/><rect x="30" y="32" width="0.75" height="0.75" fill="#637d79"/><rect x="32" y="31.65" width="0.75" height="0.75" fill="#8fd1a3"/><rect x="34" y="31.3" width="0.75" height="0.75" fill="#8fd1a3"/><rect x="36" y="30.95" width="0.75" height="0.75" fill="#637d79"/><rect x="38" y="30.6" width="0.75" height="0.75" fill="#8fd1a3"/><rect x="40" y="30.25" width="0.75" height="0.75" fill="#8fd1a3"/><line x1="14" y1="15" x2="20" y2="19" stroke="#182e2b" stroke-width="0.35"/><line x1="14" y1="16" x2="20" y2="20" stroke="#182e2b" stroke-width="0.35"/><line x1="14" y1="17" x2="20" y2="21" stroke="#182e2b" stroke-width="0.35"/><line x1="14" y1="18" x2="20" y2="22" stroke="#182e2b" stroke-width="0.35"/><line x1="14" y1="19" x2="20" y2="23" stroke="#182e2b" stroke-width="0.35"/><line x1="14" y1="20" x2="20" y2="24" stroke="#182e2b" stroke-width="0.35"/><line x1="14" y1="21" x2="20" y2="25" stroke="#182e2b" stroke-width="0.35"/><line x1="14" y1="22" x2="20" y2="26" stroke="#182e2b" stroke-width="0.35"/><line x1="14" y1="23" x2="20" y2="27" stroke="#182e2b" stroke-width="0.35"/><line x1="14" y1="24" x2="20" y2="28" stroke="#182e2b" stroke-width="0.35"/><line x1="14" y1="25" x2="20" y2="29" stroke="#182e2b" stroke-width="0.35"/><line x1="14" y1="26" x2="20" y2="30" stroke="#182e2b" stroke-width="0.35"/><line x1="14" y1="27" x2="20" y2="31" stroke="#182e2b" stroke-width="0.35"/><line x1="14" y1="28" x2="20" y2="32" stroke="#182e2b" stroke-width="0.35"/><line x1="14" y1="29" x2="20" y2="33" stroke="#182e2b" stroke-width="0.35"/><line x1="14" y1="30" x2="20" y2="34" stroke="#182e2b" stroke-width="0.35"/><line x1="14" y1="31" x2="20" y2="35" stroke="#182e2b" stroke-width="0.35"/><line x1="14" y1="32" x2="20" y2="36" stroke="#182e2b" stroke-width="0.35"/><circle cx="27" cy="42" r="0.23" fill="#dca54a"/><circle cx="28.5" cy="41.72" r="0.23" fill="#dca54a"/><circle cx="30" cy="41.44" r="0.23" fill="#dca54a"/><circle cx="31.5" cy="41.16" r="0.23" fill="#dca54a"/><circle cx="33" cy="40.88" r="0.23" fill="#dca54a"/><circle cx="34.5" cy="40.6" r="0.23" fill="#dca54a"/><circle cx="36" cy="40.32" r="0.23" fill="#dca54a"/><circle cx="37.5" cy="40.04" r="0.23" fill="#dca54a"/><circle cx="39" cy="39.76" r="0.23" fill="#dca54a"/><circle cx="40.5" cy="39.48" r="0.23" fill="#dca54a"/><circle cx="42" cy="39.2" r="0.23" fill="#dca54a"/><circle cx="43.5" cy="38.92" r="0.23" fill="#dca54a"/><circle cx="45" cy="38.64" r="0.23" fill="#dca54a"/><circle cx="46.5" cy="38.36" r="0.23" fill="#dca54a"/></svg>
